<mxfile host="Electron" agent="Mozilla/5.0 (Windows NT 10.0; Win64; x64) AppleWebKit/537.36 (KHTML, like Gecko) draw.io/26.0.9 Chrome/128.0.6613.186 Electron/32.2.5 Safari/537.36" version="26.0.9">
  <diagram name="Page-1" id="qAw2G8T4qFvRQeYYgufd">
    <mxGraphModel dx="1160" dy="785" grid="1" gridSize="10" guides="1" tooltips="1" connect="1" arrows="1" fold="1" page="1" pageScale="1" pageWidth="850" pageHeight="1100" math="0" shadow="0">
      <root>
        <mxCell id="0" />
        <mxCell id="1" parent="0" />
        <mxCell id="g6JkoaFO631H-mQx2S5Q-12" style="rounded=0;orthogonalLoop=1;jettySize=auto;html=1;exitX=0.5;exitY=0.5;exitDx=0;exitDy=0;exitPerimeter=0;entryX=0;entryY=0.5;entryDx=0;entryDy=0;endArrow=none;startFill=0;" edge="1" parent="1" source="g6JkoaFO631H-mQx2S5Q-1" target="g6JkoaFO631H-mQx2S5Q-5">
          <mxGeometry relative="1" as="geometry" />
        </mxCell>
        <mxCell id="g6JkoaFO631H-mQx2S5Q-13" style="rounded=0;orthogonalLoop=1;jettySize=auto;html=1;exitX=0.5;exitY=0.5;exitDx=0;exitDy=0;exitPerimeter=0;entryX=0;entryY=0.5;entryDx=0;entryDy=0;endArrow=none;startFill=0;" edge="1" parent="1" source="g6JkoaFO631H-mQx2S5Q-1" target="g6JkoaFO631H-mQx2S5Q-6">
          <mxGeometry relative="1" as="geometry" />
        </mxCell>
        <mxCell id="g6JkoaFO631H-mQx2S5Q-14" style="rounded=0;orthogonalLoop=1;jettySize=auto;html=1;exitX=0.5;exitY=0.5;exitDx=0;exitDy=0;exitPerimeter=0;entryX=0;entryY=0.5;entryDx=0;entryDy=0;endArrow=none;startFill=0;" edge="1" parent="1" source="g6JkoaFO631H-mQx2S5Q-1" target="g6JkoaFO631H-mQx2S5Q-11">
          <mxGeometry relative="1" as="geometry" />
        </mxCell>
        <mxCell id="g6JkoaFO631H-mQx2S5Q-15" style="rounded=0;orthogonalLoop=1;jettySize=auto;html=1;exitX=0.5;exitY=0.5;exitDx=0;exitDy=0;exitPerimeter=0;entryX=0;entryY=0.5;entryDx=0;entryDy=0;endArrow=none;startFill=0;" edge="1" parent="1" source="g6JkoaFO631H-mQx2S5Q-1" target="g6JkoaFO631H-mQx2S5Q-10">
          <mxGeometry relative="1" as="geometry" />
        </mxCell>
        <mxCell id="g6JkoaFO631H-mQx2S5Q-1" value="&lt;span style=&quot;font-size: 18px;&quot;&gt;Registered User&lt;/span&gt;" style="shape=umlActor;verticalLabelPosition=bottom;verticalAlign=top;html=1;outlineConnect=0;" vertex="1" parent="1">
          <mxGeometry x="120" y="260" width="30" height="60" as="geometry" />
        </mxCell>
        <mxCell id="g6JkoaFO631H-mQx2S5Q-2" value="CHAT APP SYSTEM" style="swimlane;startSize=0;textShadow=1;labelBorderColor=default;labelBackgroundColor=default;" vertex="1" parent="1">
          <mxGeometry x="230" y="50" width="430" height="610" as="geometry" />
        </mxCell>
        <mxCell id="g6JkoaFO631H-mQx2S5Q-5" value="&lt;font size=&quot;3&quot;&gt;Quản lý tài khoản và hồ sơ&lt;/font&gt;" style="ellipse;whiteSpace=wrap;html=1;" vertex="1" parent="g6JkoaFO631H-mQx2S5Q-2">
          <mxGeometry x="165" y="50" width="150" height="100" as="geometry" />
        </mxCell>
        <mxCell id="g6JkoaFO631H-mQx2S5Q-6" value="&lt;font size=&quot;3&quot;&gt;Nhắn tin cơ bản&lt;/font&gt;" style="ellipse;whiteSpace=wrap;html=1;" vertex="1" parent="g6JkoaFO631H-mQx2S5Q-2">
          <mxGeometry x="165" y="180" width="150" height="100" as="geometry" />
        </mxCell>
        <mxCell id="g6JkoaFO631H-mQx2S5Q-10" value="&lt;font size=&quot;3&quot;&gt;Thông báo&lt;/font&gt;" style="ellipse;whiteSpace=wrap;html=1;" vertex="1" parent="g6JkoaFO631H-mQx2S5Q-2">
          <mxGeometry x="165" y="470" width="150" height="100" as="geometry" />
        </mxCell>
        <mxCell id="g6JkoaFO631H-mQx2S5Q-11" value="&lt;font size=&quot;3&quot;&gt;Khám phá người dùng&lt;/font&gt;" style="ellipse;whiteSpace=wrap;html=1;" vertex="1" parent="g6JkoaFO631H-mQx2S5Q-2">
          <mxGeometry x="165" y="330" width="150" height="100" as="geometry" />
        </mxCell>
      </root>
    </mxGraphModel>
  </diagram>
</mxfile>
